<mxfile host="app.diagrams.net" modified="2023-05-04T08:18:21.310Z" agent="Mozilla/5.0 (X11; Linux x86_64) AppleWebKit/537.36 (KHTML, like Gecko) Chrome/110.0.0.0 Safari/537.36" etag="ZgqW2vdnaVC4wLbCpVzQ" version="21.1.8" type="device">
  <diagram name="Page-1" id="1Gi_3rfYu2X8JPSqyG_x">
    <mxGraphModel dx="1360" dy="775" grid="1" gridSize="10" guides="1" tooltips="1" connect="1" arrows="1" fold="1" page="1" pageScale="1" pageWidth="850" pageHeight="1100" math="0" shadow="0">
      <root>
        <mxCell id="0" />
        <mxCell id="1" parent="0" />
        <mxCell id="eaT2OyhN7CnghxOEZOR3-5" value="&lt;font style=&quot;font-size: 18px;&quot;&gt;Awk Script Format&lt;/font&gt;" style="text;html=1;strokeColor=none;fillColor=none;align=center;verticalAlign=middle;whiteSpace=wrap;rounded=0;" vertex="1" parent="1">
          <mxGeometry x="40" y="110" width="180" height="30" as="geometry" />
        </mxCell>
        <mxCell id="eaT2OyhN7CnghxOEZOR3-24" value="" style="group" vertex="1" connectable="0" parent="1">
          <mxGeometry x="10" y="170" width="240" height="540" as="geometry" />
        </mxCell>
        <mxCell id="eaT2OyhN7CnghxOEZOR3-1" value="" style="rounded=0;whiteSpace=wrap;html=1;fillColor=#ffe6cc;strokeColor=#000000;" vertex="1" parent="eaT2OyhN7CnghxOEZOR3-24">
          <mxGeometry width="240" height="540" as="geometry" />
        </mxCell>
        <mxCell id="eaT2OyhN7CnghxOEZOR3-23" value="" style="group" vertex="1" connectable="0" parent="eaT2OyhN7CnghxOEZOR3-24">
          <mxGeometry x="10" y="10" width="160" height="520" as="geometry" />
        </mxCell>
        <mxCell id="eaT2OyhN7CnghxOEZOR3-2" value="&lt;font style=&quot;font-size: 18px;&quot;&gt;BEGIN {&lt;br&gt;&amp;nbsp; &amp;nbsp; ...&lt;br&gt;}&lt;/font&gt;" style="text;html=1;strokeColor=none;fillColor=none;align=left;verticalAlign=top;whiteSpace=wrap;rounded=0;" vertex="1" parent="eaT2OyhN7CnghxOEZOR3-23">
          <mxGeometry width="160" height="90" as="geometry" />
        </mxCell>
        <mxCell id="eaT2OyhN7CnghxOEZOR3-3" value="&lt;font style=&quot;font-size: 18px;&quot;&gt;END {&lt;br&gt;&amp;nbsp; &amp;nbsp; ...&lt;br&gt;}&lt;/font&gt;" style="text;html=1;strokeColor=none;fillColor=none;align=left;verticalAlign=top;whiteSpace=wrap;rounded=0;" vertex="1" parent="eaT2OyhN7CnghxOEZOR3-23">
          <mxGeometry y="440" width="160" height="80" as="geometry" />
        </mxCell>
        <mxCell id="eaT2OyhN7CnghxOEZOR3-4" value="&lt;font style=&quot;font-size: 18px;&quot;&gt;PATTERN {&lt;br style=&quot;font-size: 18px;&quot;&gt;&lt;br style=&quot;font-size: 18px;&quot;&gt;&amp;nbsp; &amp;nbsp; ...&lt;br style=&quot;font-size: 18px;&quot;&gt;&lt;br style=&quot;font-size: 18px;&quot;&gt;&amp;nbsp; &amp;nbsp; ...&lt;br style=&quot;font-size: 18px;&quot;&gt;&amp;nbsp; &amp;nbsp; ...&lt;br&gt;&amp;nbsp; &amp;nbsp; ...&lt;br style=&quot;font-size: 18px;&quot;&gt;&lt;br style=&quot;font-size: 18px;&quot;&gt;&amp;nbsp; &amp;nbsp; ...&lt;br style=&quot;font-size: 18px;&quot;&gt;&lt;br style=&quot;font-size: 18px;&quot;&gt;}&lt;/font&gt;" style="text;html=1;strokeColor=none;fillColor=none;align=left;verticalAlign=top;whiteSpace=wrap;rounded=0;fontSize=18;" vertex="1" parent="eaT2OyhN7CnghxOEZOR3-23">
          <mxGeometry y="138" width="160" height="250" as="geometry" />
        </mxCell>
        <mxCell id="eaT2OyhN7CnghxOEZOR3-26" value="" style="shape=flexArrow;endArrow=classic;html=1;rounded=0;width=16;dashed=1;" edge="1" parent="1">
          <mxGeometry width="50" height="50" relative="1" as="geometry">
            <mxPoint x="268" y="431.5" as="sourcePoint" />
            <mxPoint x="408" y="432" as="targetPoint" />
          </mxGeometry>
        </mxCell>
        <mxCell id="eaT2OyhN7CnghxOEZOR3-27" value="&lt;font style=&quot;font-size: 16px;&quot;&gt;process each line&lt;/font&gt;" style="text;html=1;strokeColor=none;fillColor=none;align=center;verticalAlign=middle;whiteSpace=wrap;rounded=0;" vertex="1" parent="1">
          <mxGeometry x="268" y="370" width="140" height="50" as="geometry" />
        </mxCell>
        <mxCell id="eaT2OyhN7CnghxOEZOR3-28" value="" style="group" vertex="1" connectable="0" parent="1">
          <mxGeometry x="429" y="110" width="540" height="616" as="geometry" />
        </mxCell>
        <mxCell id="eaT2OyhN7CnghxOEZOR3-19" value="&lt;font style=&quot;font-size: 18px;&quot;&gt;Text Processing Flow&lt;/font&gt;" style="text;html=1;strokeColor=none;fillColor=none;align=center;verticalAlign=middle;whiteSpace=wrap;rounded=0;" vertex="1" parent="eaT2OyhN7CnghxOEZOR3-28">
          <mxGeometry x="170" width="200" height="30" as="geometry" />
        </mxCell>
        <mxCell id="eaT2OyhN7CnghxOEZOR3-20" value="" style="shape=flexArrow;endArrow=classic;html=1;rounded=0;endWidth=30;endSize=8.67;width=25;fillColor=#dae8fc;gradientColor=#7ea6e0;strokeColor=#000000;" edge="1" parent="eaT2OyhN7CnghxOEZOR3-28">
          <mxGeometry width="50" height="50" relative="1" as="geometry">
            <mxPoint x="270" y="50" as="sourcePoint" />
            <mxPoint x="270.5" y="170" as="targetPoint" />
          </mxGeometry>
        </mxCell>
        <mxCell id="eaT2OyhN7CnghxOEZOR3-22" value="" style="group;flipH=1;flipV=0;" vertex="1" connectable="0" parent="eaT2OyhN7CnghxOEZOR3-28">
          <mxGeometry y="186.5" width="540" height="287" as="geometry" />
        </mxCell>
        <mxCell id="eaT2OyhN7CnghxOEZOR3-13" value="" style="rounded=0;whiteSpace=wrap;html=1;" vertex="1" parent="eaT2OyhN7CnghxOEZOR3-22">
          <mxGeometry width="540" height="287" as="geometry" />
        </mxCell>
        <mxCell id="eaT2OyhN7CnghxOEZOR3-21" value="" style="group" vertex="1" connectable="0" parent="eaT2OyhN7CnghxOEZOR3-22">
          <mxGeometry x="30" y="23.5" width="480" height="240" as="geometry" />
        </mxCell>
        <mxCell id="eaT2OyhN7CnghxOEZOR3-6" value="" style="rounded=0;whiteSpace=wrap;html=1;fillColor=#d5e8d4;strokeColor=#000000;" vertex="1" parent="eaT2OyhN7CnghxOEZOR3-21">
          <mxGeometry width="480" height="40" as="geometry" />
        </mxCell>
        <mxCell id="eaT2OyhN7CnghxOEZOR3-7" value="" style="rounded=0;whiteSpace=wrap;html=1;fillColor=#d5e8d4;strokeColor=#000000;" vertex="1" parent="eaT2OyhN7CnghxOEZOR3-21">
          <mxGeometry y="50" width="480" height="40" as="geometry" />
        </mxCell>
        <mxCell id="eaT2OyhN7CnghxOEZOR3-8" value="" style="rounded=0;whiteSpace=wrap;html=1;fillColor=#d5e8d4;strokeColor=#000000;" vertex="1" parent="eaT2OyhN7CnghxOEZOR3-21">
          <mxGeometry y="100" width="480" height="40" as="geometry" />
        </mxCell>
        <mxCell id="eaT2OyhN7CnghxOEZOR3-9" value="" style="rounded=0;whiteSpace=wrap;html=1;fillColor=#d5e8d4;strokeColor=#000000;" vertex="1" parent="eaT2OyhN7CnghxOEZOR3-21">
          <mxGeometry y="150" width="480" height="40" as="geometry" />
        </mxCell>
        <mxCell id="eaT2OyhN7CnghxOEZOR3-10" value="" style="rounded=0;whiteSpace=wrap;html=1;fillColor=#d5e8d4;strokeColor=#000000;" vertex="1" parent="eaT2OyhN7CnghxOEZOR3-21">
          <mxGeometry y="200" width="480" height="40" as="geometry" />
        </mxCell>
        <mxCell id="eaT2OyhN7CnghxOEZOR3-25" value="" style="shape=flexArrow;endArrow=classic;html=1;rounded=0;endWidth=30;endSize=8.67;width=25;fillColor=#dae8fc;gradientColor=#7ea6e0;strokeColor=#000000;" edge="1" parent="eaT2OyhN7CnghxOEZOR3-28">
          <mxGeometry width="50" height="50" relative="1" as="geometry">
            <mxPoint x="270" y="496" as="sourcePoint" />
            <mxPoint x="270.5" y="616" as="targetPoint" />
          </mxGeometry>
        </mxCell>
        <mxCell id="eaT2OyhN7CnghxOEZOR3-29" value="&lt;font style=&quot;font-size: 16px;&quot;&gt;execute before processing text&lt;/font&gt;" style="text;html=1;strokeColor=none;fillColor=none;align=center;verticalAlign=middle;whiteSpace=wrap;rounded=0;" vertex="1" parent="1">
          <mxGeometry x="268" y="173" width="140" height="50" as="geometry" />
        </mxCell>
        <mxCell id="eaT2OyhN7CnghxOEZOR3-31" value="" style="shape=flexArrow;endArrow=classic;html=1;rounded=0;width=16;dashed=1;" edge="1" parent="1">
          <mxGeometry width="50" height="50" relative="1" as="geometry">
            <mxPoint x="268" y="243" as="sourcePoint" />
            <mxPoint x="408" y="243.5" as="targetPoint" />
          </mxGeometry>
        </mxCell>
        <mxCell id="eaT2OyhN7CnghxOEZOR3-34" value="&lt;font style=&quot;font-size: 16px;&quot;&gt;execute after processing text&lt;/font&gt;" style="text;html=1;strokeColor=none;fillColor=none;align=center;verticalAlign=middle;whiteSpace=wrap;rounded=0;" vertex="1" parent="1">
          <mxGeometry x="268" y="613" width="140" height="50" as="geometry" />
        </mxCell>
        <mxCell id="eaT2OyhN7CnghxOEZOR3-35" value="" style="shape=flexArrow;endArrow=classic;html=1;rounded=0;width=16;dashed=1;" edge="1" parent="1">
          <mxGeometry width="50" height="50" relative="1" as="geometry">
            <mxPoint x="268" y="683" as="sourcePoint" />
            <mxPoint x="408" y="683.5" as="targetPoint" />
          </mxGeometry>
        </mxCell>
      </root>
    </mxGraphModel>
  </diagram>
</mxfile>
